<svg width="22" height="22" viewBox="0 0 22 22" fill="none" xmlns="http://www.w3.org/2000/svg">
<path fill-rule="evenodd" clip-rule="evenodd" d="M10.8875 1.40372C9.74548 0.523656 8.31298 0 6.75777 0C3.02556 0 0 3.01577 0 6.73592C0 8.30209 0.53625 9.74343 1.43572 10.8875C0.53625 12.0315 0 13.4728 0 15.039C0 18.7591 3.02556 21.7749 6.75777 21.7749C8.31298 21.7749 9.74548 21.2513 10.8875 20.3712C12.0295 21.2513 13.462 21.7749 15.0172 21.7749C18.7495 21.7749 21.7749 18.7591 21.7749 15.039C21.7749 13.4728 21.2387 12.0315 20.3392 10.8875C21.2387 9.74343 21.7749 8.30211 21.7749 6.73592C21.7749 3.01577 18.7495 0 15.0172 0C13.462 0 12.0295 0.523656 10.8875 1.40372Z" fill="#DADDDF"/>
<path d="M5.89062 8.89942L9.95312 13.5713L15.6381 6.7793" stroke="white" stroke-width="1.5"/>
</svg>
